<?xml version="1.0" standalone="no"?>
<!DOCTYPE svg PUBLIC "-//W3C//DTD SVG 20010904//EN"
 "http://www.w3.org/TR/2001/REC-SVG-20010904/DTD/svg10.dtd">
<svg version="1.0" xmlns="http://www.w3.org/2000/svg"
 width="912.000000pt" height="912.000000pt" viewBox="0 0 912.000000 912.000000"
 preserveAspectRatio="xMidYMid meet">
<metadata>
Created by potrace 1.14, written by Peter Selinger 2001-2017
</metadata>
<g transform="translate(0.000000,912.000000) scale(0.100000,-0.100000)"
fill="#000000" stroke="none">
<path d="M2194 7241 c-2 -2 -4 -330 -4 -729 l0 -724 -46 62 c-25 34 -70 86
-101 116 -52 52 -155 134 -168 134 -3 0 -22 11 -43 23 -210 133 -583 158 -897
61 -308 -96 -583 -350 -736 -681 -35 -75 -93 -233 -104 -283 -2 -8 -4 -15 -5
-15 -1 0 -3 -11 -5 -25 -2 -14 -10 -56 -18 -95 -15 -70 -26 -133 -31 -190 -31
-308 -23 -542 25 -774 6 -31 13 -63 14 -71 2 -8 4 -15 5 -15 1 0 3 -7 5 -15
11 -45 16 -62 43 -136 121 -329 360 -610 642 -753 83 -41 112 -54 155 -66 75
-21 103 -28 120 -30 11 -2 37 -7 57 -13 38 -10 363 -9 408 2 14 3 39 8 55 11
205 40 397 158 542 332 10 12 25 30 33 40 9 10 25 34 38 54 46 75 47 72 47
-139 -1 -108 0 -202 2 -207 2 -7 135 -10 386 -9 210 1 384 2 387 3 3 0 5 931
5 2068 l0 2068 -403 0 c-222 0 -405 -2 -408 -4z m-569 -1706 c55 -7 156 -40
195 -63 203 -123 309 -285 366 -562 23 -110 35 -399 20 -485 -3 -16 -7 -48
-11 -70 -7 -53 -13 -82 -20 -105 -3 -10 -8 -27 -10 -37 -32 -139 -146 -323
-249 -402 -44 -34 -176 -106 -176 -96 0 2 -15 -1 -32 -7 -81 -25 -238 -29
-339 -9 -68 14 -199 68 -199 82 0 5 -6 9 -13 9 -16 0 -147 129 -147 144 0 2
-15 31 -34 64 -27 48 -70 155 -82 207 -2 6 -6 21 -9 35 -29 119 -38 211 -38
385 1 228 32 386 108 552 69 149 156 243 280 303 83 40 105 46 215 59 65 8 83
8 175 -4z"/>
<path d="M4526 6243 c-2 -2 -34 -5 -72 -8 -128 -9 -178 -16 -284 -41 -36 -9
-70 -17 -77 -18 -7 -1 -16 -5 -19 -9 -4 -4 -14 -7 -22 -7 -27 0 -167 -61 -245
-108 -134 -79 -274 -230 -341 -367 -25 -51 -66 -154 -69 -172 -1 -10 -5 -23
-9 -28 -8 -13 -35 -153 -43 -230 -4 -33 -9 -63 -12 -67 -2 -5 11 -8 29 -9 42
-1 671 -1 718 0 31 1 36 4 38 27 7 86 70 220 128 274 44 41 118 82 169 95 17
4 39 9 50 12 11 3 81 6 157 8 349 6 507 -87 514 -303 3 -87 -6 -117 -51 -170
-52 -60 -168 -112 -283 -128 -26 -3 -49 -8 -52 -9 -3 -2 -33 -6 -65 -10 -33
-4 -71 -8 -85 -11 -33 -5 -95 -13 -150 -19 -25 -2 -56 -6 -70 -9 -14 -2 -47
-7 -73 -11 -27 -4 -59 -8 -70 -11 -12 -2 -35 -6 -52 -9 -64 -9 -170 -34 -225
-52 -25 -8 -52 -16 -61 -18 -9 -2 -52 -17 -95 -35 -281 -112 -473 -329 -534
-603 -48 -217 -40 -438 22 -620 100 -294 357 -494 708 -553 70 -11 323 -12
395 -1 130 20 280 74 391 138 36 21 68 39 70 39 2 0 12 7 22 16 9 8 46 37 82
63 36 27 96 78 134 115 38 36 70 66 71 66 1 0 5 -30 9 -67 11 -108 16 -138 40
-215 l22 -73 429 0 c294 0 432 3 439 11 6 6 10 33 8 61 -3 40 -8 53 -26 61
-59 27 -108 86 -122 148 -19 87 -22 204 -23 1017 -1 488 -4 925 -6 970 -5 82
-7 96 -20 172 -4 22 -8 45 -9 50 -1 6 -4 15 -7 20 -4 6 -12 28 -19 50 -35 112
-119 227 -231 318 -27 21 -186 107 -209 113 -3 0 -18 6 -35 13 -53 22 -110 43
-125 45 -8 2 -40 10 -71 20 -61 18 -86 24 -139 31 -19 3 -46 8 -60 12 -27 6
-35 7 -155 18 -79 7 -324 13 -329 8z m609 -1866 c-4 -219 -6 -237 -35 -347
-39 -147 -136 -265 -277 -338 -84 -44 -147 -69 -192 -77 -14 -3 -37 -7 -51
-11 -14 -3 -65 -7 -115 -8 -146 -5 -249 28 -324 103 -68 68 -90 129 -95 271
-7 191 91 326 288 397 22 8 49 16 59 19 9 2 26 6 37 9 19 5 30 7 90 20 14 3
36 8 50 11 27 5 43 8 105 19 22 3 47 8 55 10 8 2 29 7 45 10 113 19 201 46
276 84 41 21 77 36 81 34 3 -2 5 -94 3 -206z"/>
<path d="M6071 6113 c11 -32 23 -65 26 -73 3 -8 7 -19 8 -25 3 -11 102 -290
112 -315 3 -8 7 -19 9 -25 5 -20 106 -311 116 -335 18 -43 26 -64 31 -85 4
-18 48 -144 64 -185 4 -8 7 -18 8 -22 2 -5 3 -9 5 -10 1 -2 3 -10 5 -18 2 -8
20 -60 40 -115 20 -55 43 -118 50 -140 16 -48 124 -356 155 -440 12 -33 26
-76 32 -95 6 -19 13 -39 16 -45 4 -5 7 -13 8 -17 1 -5 2 -9 3 -10 2 -2 4 -14
7 -27 2 -14 8 -29 13 -35 4 -6 14 -32 21 -59 7 -26 17 -50 21 -53 5 -3 9 -16
9 -29 0 -13 5 -27 10 -30 6 -3 10 -16 10 -29 0 -12 3 -26 7 -29 6 -7 41 -99
48 -127 2 -8 4 -16 5 -17 2 -2 3 -6 5 -10 1 -5 4 -15 8 -23 3 -8 13 -35 21
-60 8 -25 38 -110 66 -190 29 -80 56 -156 60 -170 4 -14 31 -89 58 -168 48
-135 52 -154 37 -205 -32 -111 -92 -234 -139 -285 -22 -26 -105 -71 -140 -78
-12 -2 -32 -7 -46 -10 -14 -4 -97 -8 -185 -10 -88 -2 -162 -3 -165 -3 -11 -2
1 -625 11 -632 33 -20 528 -15 640 6 14 3 41 7 60 9 19 3 35 6 37 7 2 2 5 3
52 13 45 10 200 85 200 97 0 5 4 9 10 9 17 0 69 58 116 130 93 145 204 392
328 730 31 85 65 178 76 205 10 28 42 118 70 200 28 83 67 195 87 250 19 55
53 152 75 215 22 63 43 124 48 135 5 11 24 67 44 125 19 58 63 184 97 280 34
96 68 195 75 220 8 25 18 54 23 65 5 11 35 94 66 185 31 91 67 194 80 230 20
56 46 133 50 150 1 3 5 12 8 20 4 8 23 62 42 120 20 58 39 112 42 120 4 8 7
17 8 20 7 30 30 88 38 98 5 6 7 12 4 12 -4 0 4 28 17 63 13 34 40 112 60 172
21 61 41 119 46 130 5 11 26 70 46 130 20 61 41 118 46 128 8 16 -15 17 -420
17 l-429 0 -23 -87 c-12 -49 -25 -92 -29 -98 -3 -5 -6 -14 -7 -20 -4 -22 -36
-144 -55 -204 -10 -34 -21 -73 -23 -85 -3 -11 -25 -93 -50 -181 -26 -88 -48
-169 -51 -180 -7 -32 -96 -349 -102 -365 -9 -22 -9 -21 -18 -65 -4 -22 -12
-45 -17 -51 -5 -7 -8 -16 -7 -20 1 -5 0 -16 -4 -24 -3 -8 -15 -53 -27 -100
-11 -47 -24 -92 -27 -100 -3 -8 -7 -20 -8 -26 -3 -14 -81 -292 -105 -374 -19
-66 -43 -151 -45 -160 -6 -35 -29 -100 -36 -100 -4 0 -10 15 -14 33 -6 26 -24
90 -51 175 -2 7 -4 14 -4 17 -1 3 -5 17 -10 32 -40 132 -221 745 -225 763 -2
8 -13 43 -24 78 -21 63 -42 137 -47 158 -2 10 -31 106 -80 268 -14 43 -26 86
-27 95 -1 9 -5 21 -9 26 -3 6 -9 26 -13 45 -4 19 -10 40 -13 45 -4 6 -7 15 -8
20 -3 19 -24 93 -44 156 -11 35 -23 76 -26 93 -3 16 -8 34 -12 40 -8 12 -41
126 -49 169 l-5 27 -449 0 -449 0 21 -57z"/>
</g>
</svg>
